<svg xmlns="http://www.w3.org/2000/svg" aria-hidden="true" style="position:absolute;width:0;height:0;overflow:hidden">
  <defs>
<symbol id="icon-logo" viewBox="0 0 101 32">
      <path d="m19.323 7.547.017.014.176.146.141.118.625.52.001 14.512a843 843 0 0 1-10.04 8.163c-.214-.021-5.76-4.582-8.577-6.9l-.079-.065c-.722-.594-1.253-1.03-1.449-1.189L.128 8.351 10.158.133c.327.046 6.588 5.265 9.165 7.412zm-4.331 2.965-.011-.018-.002-.003-.016-.025c-1.648-2.667-4.536-7.339-4.783-7.516l-5.82 9.273.013 6.437 1.17 1.92c.512.073 1.029.157 1.548.24 1.052.17 2.111.341 3.155.428l1.393-.209a187 187 0 0 1 3.229-.469l1.174-1.823-.001-6.542c-.14-.22-.531-.853-1.05-1.692zm1.484 2.47a87 87 0 0 0-.02 3.572q.007.727.009 1.452l.62-1.005q.268-.428.534-.857l.203-.33.195-.319q-.073-.122-.146-.248a40 40 0 0 1-.293-.517c-.341-.608-.693-1.236-1.102-1.748M11.833 1.947c-.481-.423-1.072-.941-1.426-1.092l.011.476q.014.561.021 1.122 2.774 4.475 5.592 8.922c0-.091-.004-.234-.009-.409v-.029c-.022-.835-.063-2.354.15-2.578l.018-.017.032-.026.188.082c.145.66.11 1.69.079 2.607l-.001.013-.002.056c-.013.382-.024.742-.021 1.045q.372.619.754 1.236c.441.714.882 1.429 1.291 2.159l-2.042 3.278.005 2.101v1.618l3.386.002-.007-13.964a407 407 0 0 0-7.519-6.174l-.078-.064-.072-.06q-.16-.137-.35-.305zM9.919.881c-1.059.87-2.128 1.733-3.197 2.595C4.65 5.149 2.576 6.823.565 8.558L.552 22.51l3.376.005.007-1.866.008-1.885-2.01-3.297q.99-1.678 2.006-3.34l-.005-.231-.009-.32c-.031-1.036-.087-2.937.11-3.244l.131-.025c.124.094.172.152.193.312.076.573.045 1.305.016 1.986l-.011.273-.005.14q-.01.23-.011.439l5.649-9.015c.001-.116.01-.25.018-.393.024-.388.051-.837-.047-1.127L9.919.88zM7.752 21.34c-.635-.113-1.27-.226-1.901-.277l.488.784c1.302 2.089 2.607 4.184 3.852 6.305q.947-1.527 1.874-3.065.42-.676.834-1.356c.549-.896 1.098-1.793 1.666-2.676-.354.05-.774.123-1.222.2-1.111.192-2.389.412-3.225.39-.785-.021-1.575-.162-2.366-.303zm-3.401-.505c.001.698.014 1.396-.005 2.093l-1.023.002c-.808.002-1.616.005-2.424-.006l9.102 7.43a67 67 0 0 1-.017-1.706c-.884-1.5-1.798-2.982-2.712-4.464l-.017-.028-.003-.005c-.652-1.057-1.304-2.113-1.945-3.177zm11.453.032-.036.003-.662.102-4.681 7.619-.018 1.757a292 292 0 0 1 2.045-1.65 453 453 0 0 0 7.049-5.773l-3.456.004q.004-.232.015-.479l.001-.014c.021-.51.044-1.049-.058-1.513-.091-.068-.103-.067-.172-.058l-.027.003zM3.942 17.798l.009-.533c.026-1.345.075-3.976-.092-4.231l-.24.409-.245.41a37 37 0 0 0-.933 1.62q.155.255.313.51c.237.381.474.764.687 1.155l.5.817zm11.645 2.607c.196-.023.297-.056.545-.147.045-.206.064-.549.046-.801a5.4 5.4 0 0 0-.504.792zm-11.211-.861c-.018.252 0 .509.046.801.304.096.359.119.417.13.03.006.061.008.128.016-.183-.324-.355-.658-.591-.947"/>
      <path d="m14.991 10.512-.668-1.081.657 1.063zm1.039.863c0-.094-.004-.244-.009-.427v.009c.005.179.009.325.009.418m-11.668-.457q-.011.284-.015.539.003-.21.011-.439zm-.423 1.208c-.001-.116-.007-.31-.014-.551l.009.32zM16.048 22.83q.005-.193.014-.395l-.001.014q-.008.195-.013.381M3.859 13.035a35 35 0 0 1-.29.492l.05-.084zm.081 4.92c0-.164.008-.535.017-1.002l-.006.313c-.006.318-.011.564-.011.689m63.029 10.958v-.96h.975q.501 0 .86-.129.359-.115.602-.416c.243-.301.301-.478.416-.831l2.552-8.2h1.047l-2.666 8.501q-.23.73-.631 1.176-.402.46-.96.659c-.558.199-.798.201-1.276.201h-.918zm2.466-3.14v-.903h1.362v.903zm-.129 0-2.752-7.397h1.104l2.652 7.397zm-7.554.186v-7.584h.86v3.168h-.086q0-1.663.731-2.451.73-.803 2.294-.803h.244v.975h-.444q-1.233 0-1.878.645-.645.63-.645 1.864v4.186zm-3.718.001V15.495h1.075V25.96zm-1.104-9.591v-.874h2.179v.874zm-4.392 9.834q-.975 0-1.692-.33a3.4 3.4 0 0 1-1.176-.903 4 4 0 0 1-.688-1.276 5 5 0 0 1-.215-1.448v-.201q0-.73.215-1.434.23-.702.688-1.262c.458-.56.688-.669 1.147-.889q.702-.344 1.634-.344 1.19 0 1.978.53.803.531 1.204 1.362.401.818.401 1.763v.559h-6.781v-.831h6.035l-.272.416q0-.846-.301-1.477a2.2 2.2 0 0 0-.86-1.004q-.56-.373-1.405-.373-.89 0-1.477.416c-.587.416-.688.645-.889 1.104q-.287.689-.287 1.563 0 .86.287 1.577.301.702.903 1.118.617.416 1.548.416.989 0 1.606-.444.616-.459.76-1.075h1.004a2.9 2.9 0 0 1-.602 1.319q-.459.545-1.161.846c-.702.301-1.004.301-1.606.301zm-19.535.614q-.975 0-1.692-.33a3.4 3.4 0 0 1-1.176-.903 4 4 0 0 1-.688-1.276 5 5 0 0 1-.215-1.448v-.201q0-.73.215-1.434.23-.702.688-1.262c.458-.56.688-.669 1.147-.889q.702-.344 1.634-.344 1.19 0 1.978.53.803.531 1.204 1.362.402.818.401 1.763v.559h-6.781v-.831h6.035l-.272.416q0-.846-.301-1.477a2.2 2.2 0 0 0-.86-1.004q-.56-.373-1.405-.373-.89 0-1.477.416c-.587.416-.688.645-.889 1.104q-.287.689-.287 1.563 0 .86.287 1.577.301.702.903 1.118.617.416 1.548.416.989 0 1.606-.444.616-.459.76-1.075h1.004a2.9 2.9 0 0 1-.602 1.319q-.459.544-1.161.846c-.702.302-1.004.301-1.606.301zm-8.855 2.666v-.96h.86q.56 0 .846-.33.301-.315.301-.918v-8.286h1.032v8.085q0 .89-.244 1.419-.23.53-.745.76c-.515.23-.803.229-1.376.229zm.774-9.634v-.86h2.265v.86zm1.434-2.394q-.387 0-.588-.201-.186-.215-.186-.53c0-.315.062-.382.186-.516q.201-.215.588-.215c.387 0 .449.072.573.215q.186.201.186.516c0 .315-.062.387-.186.53q-.186.201-.573.201m69.305-2.853q-.975 0-1.692-.33a3.4 3.4 0 0 1-1.175-.903 4 4 0 0 1-.688-1.276 5 5 0 0 1-.215-1.448v-.201q0-.73.215-1.434.23-.702.688-1.262c.458-.56.688-.669 1.147-.889q.702-.344 1.634-.344 1.19 0 1.978.53.803.531 1.204 1.362.401.818.401 1.763v.559h-6.781v-.832h6.035l-.272.416q0-.846-.301-1.477a2.2 2.2 0 0 0-.86-1.004q-.56-.373-1.405-.373-.89 0-1.477.416c-.587.416-.688.645-.889 1.104q-.287.689-.287 1.563 0 .86.287 1.577.301.702.903 1.118.617.416 1.548.416.989 0 1.606-.444.616-.459.76-1.075h1.003a2.9 2.9 0 0 1-.602 1.319q-.459.544-1.161.846c-.702.302-1.004.301-1.606.301zm-9.714 0a3.75 3.75 0 0 1-1.52-.301 3.7 3.7 0 0 1-1.176-.86 4.2 4.2 0 0 1-.76-1.262 4.5 4.5 0 0 1-.258-1.52v-.201q0-.774.258-1.477.258-.716.731-1.262a3.5 3.5 0 0 1 2.695-1.205q.96 0 1.692.416c.732.416.879.679 1.176 1.204q.444.774.473 1.907l-.473-.889V3.891h1.075v10.465H89v-3.369h.344q-.028 1.19-.502 2.007a3 3 0 0 1-1.219 1.204 3.5 3.5 0 0 1-1.677.401zm.143-.946q.774 0 1.391-.344a2.5 2.5 0 0 0 .989-.975q.358-.645.358-1.477v-.688q0-.803-.358-1.405a2.5 2.5 0 0 0-.989-.96 2.84 2.84 0 0 0-1.405-.344q-.846 0-1.477.416a2.7 2.7 0 0 0-.96 1.104q-.33.702-.33 1.577 0 .903.344 1.606c.344.703.554.836.975 1.104q.63.387 1.462.387zm-6.656.703V12.08h-.172V9.385q0-.846-.444-1.29-.444-.459-1.376-.459-.43 0-.874.014-.43.015-.832.043-.387.015-.688.043V6.79l.645-.057q.33-.029.674-.029.358-.014.688-.014 1.16 0 1.864.287.717.286 1.047.903.33.602.33 1.606v4.874h-.86zm-2.566.2q-.803 0-1.419-.287c-.616-.287-.731-.468-.96-.832q-.33-.545-.33-1.319 0-.76.344-1.29.358-.53 1.018-.803.674-.287 1.62-.287h2.222v.817h-2.294q-.903 0-1.391.444-.473.43-.473 1.133 0 .717.502 1.147.502.416 1.362.416a2.8 2.8 0 0 0 1.018-.186q.487-.201.817-.659.33-.472.358-1.29l.315.444q-.057.846-.401 1.419-.344.56-.932.846c-.588.286-.851.287-1.376.287m-15.697-.2V6.761h.86v3.197h-.172q0-1.047.287-1.806.301-.76.889-1.176.588-.43 1.491-.43h.043q.903 0 1.491.416c.588.416.683.669.874 1.176q.287.76.287 1.821h-.344q0-1.047.287-1.806.301-.76.889-1.176.602-.43 1.505-.43h.043q.903 0 1.491.416.602.415.889 1.176.301.76.301 1.821v4.401h-1.075V9.716q0-1.003-.487-1.591c-.487-.588-.793-.588-1.405-.588q-.947 0-1.505.616-.545.602-.545 1.634v4.573H66.19V9.715q0-1.003-.487-1.591c-.487-.588-.793-.588-1.405-.588q-.947 0-1.505.616-.545.602-.545 1.634v4.573h-1.075zm-6.546.243a3.75 3.75 0 0 1-1.52-.301 3.7 3.7 0 0 1-1.176-.86 4.2 4.2 0 0 1-.76-1.262 4.5 4.5 0 0 1-.258-1.52v-.201q0-.774.258-1.477.258-.716.731-1.262a3.5 3.5 0 0 1 2.695-1.205q.96 0 1.692.416c.732.416.879.679 1.176 1.204q.444.774.473 1.907l-.473-.889V3.891h1.075v10.465h-.86v-3.369h.344q-.028 1.19-.502 2.007a3 3 0 0 1-1.219 1.204 3.5 3.5 0 0 1-1.677.401zm.143-.946q.774 0 1.391-.344.63-.343.989-.975.358-.645.358-1.477v-.688q0-.803-.358-1.405a2.5 2.5 0 0 0-.989-.96 2.84 2.84 0 0 0-1.405-.344q-.846 0-1.477.416a2.7 2.7 0 0 0-.961 1.104q-.33.702-.33 1.577 0 .903.344 1.606c.344.703.554.836.975 1.104q.63.387 1.462.387zm-12.211.703V6.775h.86v3.183h-.172q0-1.06.315-1.821c.315-.761.526-.898.946-1.176q.631-.416 1.591-.416h.043q1.434 0 2.136.903.702.89.702 2.509v4.401h-1.061V9.727q0-.989-.545-1.591c-.545-.602-.87-.602-1.52-.602q-1.004 0-1.62.631-.602.617-.602 1.634v4.559h-1.075zm-3.402 0V12.08h-.172V9.385q0-.846-.444-1.29-.444-.459-1.376-.459-.43 0-.874.014-.43.015-.831.043-.387.015-.688.043V6.79l.645-.057q.33-.029.674-.029.358-.014.688-.014 1.16 0 1.864.287.717.286 1.047.903.33.602.33 1.606v4.874h-.86zm-2.566.2q-.802 0-1.419-.287c-.617-.287-.731-.468-.961-.832q-.33-.545-.33-1.319 0-.76.344-1.29.358-.53 1.018-.803.673-.287 1.62-.287h2.222v.817h-2.294q-.903 0-1.391.444-.473.43-.473 1.133 0 .717.502 1.147.501.416 1.362.416a2.8 2.8 0 0 0 1.018-.186q.487-.201.817-.659.33-.472.358-1.29l.315.444q-.057.846-.401 1.419-.344.56-.932.846c-.588.286-.851.287-1.376.287zm-11.007-.201V3.893h1.075v5.921l-.315.244q0-1.061.301-1.849.315-.789.932-1.219.631-.444 1.577-.444h.057q1.377 0 2.079.903.717.903.717 2.509v4.401h-1.061V9.728q0-1.018-.559-1.606c-.559-.588-.875-.588-1.505-.588q-1.018 0-1.62.659-.602.645-.602 1.706v4.459zm14.927 11.376 1.504-6.816h1.398l1.744 6.816h-.865l-1.744-6.776h.319l-1.518 6.776zm-.573 0v-.812h1.211v.812zm-.239 0-2.037-7.042h.958l2.01 7.042h-.932zm4.819 0v-.812h1.185v.812zm.519 0 1.757-7.042h.919l-1.797 7.042z"/>
    </symbol>

    <symbol id="icon-star-fill" viewBox="0 0 24 24">
      <path fill="currentColor" d="M10.885.778a1.188 1.188 0 0 1 2.23 0l2.435 6.123c.173.437.567.736 1.018.774l6.32.53c1.07.09 1.504 1.487.688 2.218l-4.814 4.314a1.3 1.3 0 0 0-.39 1.252l1.472 6.45c.249 1.094-.888 1.957-1.804 1.372l-5.41-3.457a1.16 1.16 0 0 0-1.26 0l-5.41 3.457c-.916.585-2.053-.278-1.804-1.371l1.471-6.45a1.3 1.3 0 0 0-.389-1.253L.424 10.423c-.816-.73-.382-2.128.689-2.218l6.319-.53A1.21 1.21 0 0 0 8.45 6.9z"/>
    </symbol>
    <symbol id="icon-star" viewBox="0 0 24 24">
      <path stroke="currentColor" stroke-width="2" d="M12 1a.2.2 0 0 1 .099.028.24.24 0 0 1 .086.12L14.62 7.27a2.21 2.21 0 0 0 1.864 1.4l6.32.53c.049.004.078.02.101.04.029.025.06.068.08.13.038.125.006.235-.076.308l-4.814 4.313a2.3 2.3 0 0 0-.697 2.22l1.471 6.45c.032.14-.02.24-.096.297a.2.2 0 0 1-.097.041c-.018.001-.049 0-.098-.032l-5.41-3.456a2.16 2.16 0 0 0-2.336 0l-5.41 3.456c-.05.031-.08.033-.098.032a.2.2 0 0 1-.097-.041c-.075-.057-.128-.157-.096-.297l1.472-6.45a2.3 2.3 0 0 0-.698-2.22L1.091 9.68c-.081-.073-.114-.183-.075-.309a.3.3 0 0 1 .079-.129.17.17 0 0 1 .101-.04l6.32-.53a2.21 2.21 0 0 0 1.864-1.4l2.435-6.124a.24.24 0 0 1 .086-.119A.2.2 0 0 1 12 1Z"/>
    </symbol>
    <symbol id="icon-book" viewBox="0 0 32 32">
      <path d="M8 29.333h20v-2.667H8.016c-.616-.016-1.349-.26-1.349-1.333S7.4 24.016 8.016 24H28V5.333a2.67 2.67 0 0 0-2.667-2.667H8c-1.608 0-4 1.065-4 4v18.667c0 2.935 2.392 4 4 4M6.667 6.667C6.667 5.594 7.4 5.35 8 5.334h17.333v16H6.666z"/>
      <path d="M10.667 8h12v2.667h-12z"/>
    </symbol>
    <symbol id="icon-envelope" viewBox="0 0 32 32">
      <path d="M26.667 5.333H5.334A2.67 2.67 0 0 0 2.667 8v16a2.67 2.67 0 0 0 2.667 2.667h21.333A2.67 2.67 0 0 0 29.334 24V8a2.67 2.67 0 0 0-2.667-2.667m0 2.667v.681L16 16.978 5.333 8.682v-.683h21.333zM5.333 24V12.059l9.848 7.66a1.33 1.33 0 0 0 1.638 0l9.848-7.66L26.67 24z"/>
    </symbol>
    <symbol id="icon-facebook" viewBox="0 0 32 32">
      <path d="M29.333 16.405C29.333 8.996 23.364 2.99 16 2.99S2.667 8.996 2.667 16.405c0 6.696 4.876 12.245 11.25 13.252v-9.374h-3.385v-3.878h3.385V13.45c0-3.362 1.991-5.219 5.036-5.219 1.459 0 2.985.262 2.985.262v3.301h-1.681c-1.656 0-2.173 1.034-2.173 2.095v2.516h3.698l-.591 3.878h-3.107v9.374c6.374-1.006 11.25-6.556 11.25-13.252z"/>
    </symbol>
    <symbol id="icon-hand-with-heart" viewBox="0 0 32 32">
      <path d="M3.2 31.2h15.392a6.4 6.4 0 0 0 4.86-2.235l8.163-9.523a1.61 1.61 0 0 0 .329-1.468 1.6 1.6 0 0 0-1.035-1.091l-3.149-1.05a4.88 4.88 0 0 0-4.517.805l-5.096 4.075-.987-1.976a6.37 6.37 0 0 0-5.725-3.536H3.201a3.203 3.203 0 0 0-3.2 3.2v9.6c0 1.765 1.435 3.2 3.2 3.2zm0-12.8h8.234a3.18 3.18 0 0 1 2.862 1.768l.715 1.432H8v3.2h9.622c.246-.003.488-.064.707-.176l.005-.002.006-.003h.005l.003-.002h.006l.002-.002c.014.005.005-.002.005-.002.016 0 .003-.002.003-.002h.002l.003-.002.005-.002.006-.003.005-.002.003-.002c.005 0 .003-.002.003-.002l.005-.003.006-.003.005-.002.003-.002h.002l.003-.002.005-.002.003-.002c.014-.002.005-.002.005-.002l.003-.002q.093-.056.176-.125l6.634-5.307a1.62 1.62 0 0 1 1.504-.267l.891.298-6.613 7.717a3.25 3.25 0 0 1-2.432 1.101H3.199v-9.6zM22.373.8c-.261.003-1.61.062-3.173 1.128C17.678.891 16.362.808 16.051.802L16.003.8h-.006a4.76 4.76 0 0 0-3.39 1.405c-.906.907-1.406 2.112-1.406 3.395s.501 2.488 1.378 3.366l5.462 5.738a1.62 1.62 0 0 0 1.16.493 1.6 1.6 0 0 0 1.159-.495l5.434-5.709c.907-.906 1.406-2.11 1.406-3.394s-.501-2.488-1.405-3.394A4.76 4.76 0 0 0 22.403.799zM24 5.6c0 .427-.166.829-.498 1.16L19.2 11.28l-4.331-4.549c-.302-.302-.469-.704-.469-1.131s.166-.829.47-1.133A1.56 1.56 0 0 1 15.966 4c.04.002.803.051 1.707.776q.195.156.395.355l1.131 1.131 1.131-1.131q.201-.2.395-.355c.846-.68 1.562-.765 1.683-.774A1.59 1.59 0 0 1 23.999 5.6z"/>
    </symbol>
    <symbol id="icon-instagram" viewBox="0 0 32 32">
      <path d="M15.998 6.161c3.206 0 3.585.014 4.846.071 1.172.052 1.804.248 2.226.412.558.216.961.478 1.378.895.422.422.679.82.9 1.378.164.422.361 1.059.412 2.226.056 1.266.071 1.645.071 4.847s-.014 3.585-.071 4.847c-.052 1.172-.248 1.804-.412 2.227a3.7 3.7 0 0 1-.895 1.377c-.422.422-.82.679-1.378.9-.422.164-1.06.361-2.226.412-1.266.056-1.645.071-4.847.071s-3.585-.014-4.847-.071c-1.172-.052-1.804-.248-2.226-.412a3.7 3.7 0 0 1-1.378-.895 3.8 3.8 0 0 1-.9-1.378c-.164-.422-.361-1.06-.412-2.226-.056-1.266-.071-1.645-.071-4.847s.014-3.585.071-4.847c.052-1.172.248-1.804.412-2.226.216-.558.478-.961.895-1.378.422-.422.82-.679 1.378-.9.422-.164 1.059-.361 2.226-.412 1.261-.056 1.641-.071 4.847-.071zm0-2.16c-3.258 0-3.665.014-4.945.071-1.275.056-2.151.262-2.91.558a5.85 5.85 0 0 0-2.127 1.387A5.9 5.9 0 0 0 4.629 8.14c-.295.764-.502 1.636-.558 2.91C4.015 12.335 4 12.742 4 15.999s.014 3.665.071 4.945c.056 1.275.262 2.151.558 2.91a5.9 5.9 0 0 0 1.387 2.127 5.9 5.9 0 0 0 2.123 1.383c.764.295 1.636.502 2.91.558 1.279.056 1.687.071 4.945.071s3.666-.014 4.945-.071c1.275-.056 2.151-.262 2.91-.558.787-.305 1.458-.717 2.123-1.383s1.078-1.336 1.383-2.123c.295-.764.502-1.635.558-2.91.056-1.279.071-1.687.071-4.945s-.014-3.665-.071-4.945c-.056-1.275-.262-2.151-.558-2.91a5.6 5.6 0 0 0-1.373-2.133 5.9 5.9 0 0 0-2.123-1.383c-.764-.295-1.635-.502-2.91-.558-1.284-.061-1.692-.075-4.949-.075L15.999 4z"/>
      <path d="M15.998 9.836a6.164 6.164 0 1 0 6.163 6.163 6.164 6.164 0 0 0-6.163-6.163m0 10.161a3.998 3.998 0 1 1 0-7.996 3.998 3.998 0 0 1 0 7.996m7.845-10.405a1.439 1.439 0 1 1-2.877 0 1.439 1.439 0 0 1 2.877 0"/>
    </symbol>
    <symbol id="icon-leaf" viewBox="0 0 32 32">
      <path d="m29.173 2.867-1.6.533a18.45 18.45 0 0 1-8.547.853 15.83 15.83 0 0 0-8.907 1.2 9.64 9.64 0 0 0-5.72 7.214 11.53 11.53 0 0 0 1.96 8.8c-.08.28-.16.56-.227.84a30 30 0 0 0-.8 7.027h2.667c.125-1.936.388-3.861.787-5.76a12.34 12.34 0 0 0 6.027 1.48 14.7 14.7 0 0 0 5.707-1.16c10.147-4.333 8.813-18.747 8.813-19.347zM19.48 21.44c-3.48 1.48-7.64 1.227-9.973-.6a18.4 18.4 0 0 1 1.613-3.787 13.6 13.6 0 0 1 1.853-2.387 12 12 0 0 1 2.413-1.893 16 16 0 0 1 5.947-2.107V9.333a15.24 15.24 0 0 0-7.013 1.44 13.7 13.7 0 0 0-5.493 4.867 20 20 0 0 0-1.333 2.493 9.34 9.34 0 0 1-.507-4.973 6.99 6.99 0 0 1 4.187-5.334 11.9 11.9 0 0 1 5.093-1.12c.827 0 1.64.08 2.493.147a21.6 21.6 0 0 0 8-.467c-.093 3.68-.76 12.28-7.28 15.053z"/>
    </symbol>
    <symbol id="icon-linkedin" viewBox="0 0 32 32">
      <path d="M25.75 4H6.25A2.257 2.257 0 0 0 4 6.25v19.5A2.257 2.257 0 0 0 6.25 28h19.5A2.257 2.257 0 0 0 28 25.75V6.25A2.257 2.257 0 0 0 25.75 4M13 23.5h-3V13h3zm-1.5-12a1.5 1.5 0 1 1-.001-2.999A1.5 1.5 0 0 1 11.5 11.5m12 12h-3v-6a1.5 1.5 0 1 0-3 0v6h-3V13h3v1.861c.619-.848 1.565-1.861 2.625-1.861 1.866 0 3.375 1.679 3.375 3.75z"/>
    </symbol>
    <symbol id="icon-map" viewBox="0 0 32 32">
      <path d="M16 18.667c2.941 0 5.333-2.392 5.333-5.333S18.941 8.001 16 8.001s-5.333 2.392-5.333 5.333 2.392 5.333 5.333 5.333m0-8c1.471 0 2.667 1.196 2.667 2.667S17.471 16.001 16 16.001s-2.667-1.196-2.667-2.667 1.196-2.667 2.667-2.667"/>
      <path d="M15.227 29.085a1.33 1.33 0 0 0 1.546 0c.405-.287 9.932-7.165 9.893-15.752 0-5.881-4.785-10.667-10.667-10.667S5.332 7.451 5.332 13.326c-.039 8.593 9.488 15.472 9.893 15.759zM16 5.333c4.412 0 8 3.588 8 8.007.028 5.917-5.851 11.231-8 12.973-2.148-1.744-8.028-7.059-8-12.98 0-4.412 3.588-8 8-8"/>
    </symbol>
    <symbol id="icon-menu" viewBox="0 0 32 32">
      <path d="M5.333 8h21.333v2.667H5.333zm0 6.667h21.333v2.667H5.333zm0 6.666h21.333V24H5.333z"/>
    </symbol>
    <symbol id="icon-space-X" viewBox="0 0 32 32">
      <path d="M22.901 5.657h3.68l-8.04 9.037L28 26.991h-7.406l-5.801-7.458-6.637 7.458H4.474l8.6-9.666L4 5.657h7.594l5.243 6.817zM21.61 24.824h2.039L10.486 7.709H8.298z"/>
    </symbol>
    <symbol id="icon-phone" viewBox="0 0 32 32">
      <path d="M23.61 16.391a1.34 1.34 0 0 0-.942-.391 1.33 1.33 0 0 0-.942.391l-2.125 2.125c-.985-.293-2.824-.96-3.989-2.125s-1.832-3.004-2.125-3.989l2.125-2.125a1.34 1.34 0 0 0 .391-.942 1.33 1.33 0 0 0-.391-.942L10.279 3.06a1.34 1.34 0 0 0-.942-.391 1.33 1.33 0 0 0-.942.391L4.779 6.676a2.66 2.66 0 0 0-.781 1.913c.031 1.899.533 8.493 5.731 13.691s11.792 5.699 13.692 5.731h.037c.704 0 1.369-.277 1.873-.781l3.616-3.616a1.34 1.34 0 0 0 .391-.942 1.33 1.33 0 0 0-.391-.942l-5.333-5.335zm-.17 8.949c-1.664-.028-7.357-.475-11.831-4.949C7.121 15.903 6.686 10.19 6.66 8.559l2.673-2.673 3.448 3.448-1.724 1.724a1.33 1.33 0 0 0-.362 1.216c.032.153.815 3.789 3.028 6.003s5.849 2.996 6.003 3.028a1.32 1.32 0 0 0 1.216-.361l1.725-1.724 3.448 3.448-2.675 2.673z"/>
    </symbol>
    <symbol id="icon-close" viewBox="0 0 32 32">
      <path d="m21.589 8.459-5.657 5.656-5.656-5.656-1.885 1.885L14.047 16l-5.656 5.656 1.885 1.885 5.656-5.656 5.657 5.656 1.885-1.885L17.818 16l5.656-5.656z"/>
    </symbol>
    <symbol id="icon-youtube" viewBox="0 0 32 32">
      <path d="M28.791 9.604a3.35 3.35 0 0 0-2.35-2.354C24.353 6.677 16 6.667 16 6.667s-8.352-.009-10.441.539a3.42 3.42 0 0 0-2.354 2.371c-.551 2.088-.556 6.419-.556 6.419s-.005 4.352.541 6.419a3.34 3.34 0 0 0 2.351 2.353c2.109.573 10.44.583 10.44.583s8.353.009 10.441-.537a3.36 3.36 0 0 0 2.356-2.35c.552-2.087.556-6.416.556-6.416s.027-4.353-.543-6.441zM13.328 20.007l.007-8 6.943 4.007z"/>
    </symbol>
  </defs>
</svg>